<?xml version="1.0" standalone="no"?>
<!DOCTYPE svg PUBLIC "-//W3C//DTD SVG 20010904//EN"
 "http://www.w3.org/TR/2001/REC-SVG-20010904/DTD/svg10.dtd">
<svg version="1.0" xmlns="http://www.w3.org/2000/svg"
 width="700.000000pt" height="700.000000pt" viewBox="0 0 700.000000 700.000000"
 preserveAspectRatio="xMidYMid meet">
<metadata>
Created by potrace 1.11, written by Peter Selinger 2001-2013
</metadata>
<g transform="translate(0.000000,700.000000) scale(0.100000,-0.100000)"
fill="#000000" stroke="none">
<path d="M3430 6981 c-66 -36 -92 -118 -60 -187 10 -23 40 -56 70 -79 29 -22
57 -45 64 -51 6 -5 67 -55 136 -109 69 -54 127 -101 130 -105 3 -3 25 -21 50
-40 25 -19 52 -40 60 -47 141 -116 281 -221 305 -229 120 -40 230 90 171 204
-10 19 -89 90 -194 173 -97 78 -181 146 -187 152 -24 22 190 -18 390 -75 457
-128 860 -346 1245 -673 19 -16 98 -93 175 -170 303 -305 544 -674 703 -1075
66 -166 151 -471 168 -595 3 -27 8 -53 10 -56 1 -3 6 -28 9 -55 3 -27 8 -60
10 -74 25 -149 26 -645 1 -777 -2 -10 -7 -38 -10 -63 -5 -40 -15 -95 -33 -195
-11 -62 -66 -264 -98 -360 -124 -373 -303 -701 -553 -1015 -120 -150 -370
-395 -520 -509 -26 -20 -52 -40 -59 -46 -6 -5 -38 -29 -71 -53 -71 -50 -97
-96 -89 -154 11 -82 71 -131 152 -125 41 3 63 13 125 57 65 46 193 145 226
175 6 6 35 31 65 57 77 66 214 202 284 282 33 38 67 76 75 85 27 29 145 184
194 255 258 371 471 865 551 1276 15 75 35 193 40 230 10 78 16 124 21 155 9
55 12 559 3 625 -4 36 -10 94 -14 130 -3 36 -8 72 -10 80 -2 8 -7 35 -10 60
-8 60 -40 213 -70 330 -75 294 -209 614 -373 890 -74 123 -145 233 -169 258
-7 7 -13 17 -13 20 0 4 -10 18 -22 32 -13 14 -36 43 -53 65 -16 22 -39 51 -51
65 -12 14 -41 48 -64 75 -125 147 -321 333 -489 464 -312 244 -686 444 -1056
566 -167 55 -404 112 -535 130 -19 3 -46 7 -60 10 -13 2 -54 7 -90 11 -36 3
-78 8 -95 10 -16 2 -102 6 -190 9 -145 5 -163 4 -195 -14z"/>
<path d="M1550 6403 c-8 -3 -35 -20 -60 -37 -387 -269 -739 -646 -992 -1066
-168 -278 -327 -664 -394 -950 -17 -77 -54 -254 -60 -290 -14 -96 -15 -105
-34 -285 -8 -82 -6 -536 3 -590 4 -26 10 -72 22 -175 34 -299 154 -696 306
-1015 209 -439 544 -872 903 -1168 21 -18 43 -37 50 -42 6 -6 47 -38 91 -71
377 -284 767 -475 1211 -594 128 -35 126 -34 234 -55 115 -22 164 -29 350 -51
19 -2 105 -6 191 -10 150 -6 158 -6 196 16 45 25 71 62 77 111 9 78 1 87 -412
417 -213 170 -400 313 -417 319 -93 31 -189 -42 -187 -143 2 -57 23 -87 110
-156 84 -67 101 -81 116 -93 6 -5 45 -37 86 -69 103 -81 102 -79 50 -73 -252
31 -606 145 -905 292 -333 164 -595 352 -860 619 -177 178 -303 336 -440 551
-75 117 -208 374 -252 485 -104 260 -185 559 -208 765 -4 33 -9 69 -11 79 -10
53 -19 238 -19 381 1 232 16 391 60 630 60 318 222 733 403 1030 222 363 526
692 861 933 99 71 131 112 131 170 0 76 -67 143 -141 141 -24 0 -51 -3 -59 -6z"/>
<path d="M3435 5231 c-70 -32 -79 -61 -81 -249 0 -89 -3 -164 -5 -166 -2 -2
-34 -6 -70 -9 -276 -23 -523 -220 -614 -490 -52 -155 -53 -308 -4 -458 72
-219 246 -395 464 -467 93 -31 124 -34 366 -37 224 -2 260 -7 339 -42 123 -56
218 -180 243 -320 38 -207 -78 -409 -283 -490 -40 -16 -100 -18 -557 -23 -497
-5 -512 -6 -539 -26 -70 -51 -88 -129 -46 -196 41 -66 55 -68 398 -71 l308 -2
1 -160 c1 -92 6 -171 13 -187 43 -103 187 -116 252 -21 23 34 25 45 27 182 1
80 2 156 2 169 1 20 6 22 49 22 26 0 82 9 124 20 369 93 606 456 541 829 -19
113 -77 248 -135 317 -13 15 -36 42 -51 60 -44 52 -145 124 -224 160 -122 57
-181 67 -443 70 -259 3 -302 11 -399 77 -162 111 -233 313 -172 494 52 153
179 265 333 293 32 6 260 12 531 13 463 2 476 3 503 23 50 37 67 68 66 123 -2
61 -28 102 -81 127 -31 15 -73 17 -338 16 -167 0 -303 2 -304 6 0 4 -2 79 -3
168 -1 164 -6 188 -50 229 -39 37 -102 43 -161 16z"/>
</g>
</svg>
