<?xml version="1.0" encoding="iso-8859-1"?>
<!-- Generator: Adobe Illustrator 19.0.0, SVG Export Plug-In . SVG Version: 6.00 Build 0)  -->
<svg version="1.1" id="Capa_1" xmlns="http://www.w3.org/2000/svg" xmlns:xlink="http://www.w3.org/1999/xlink" x="0px" y="0px"
	 viewBox="0 0 512 512" style="enable-background:new 0 0 512 512;" xml:space="preserve">
<g>
	<path style="fill:#303C42;" d="M256,0c-4.521,0-8.563,2.865-10.063,7.135s-0.146,9.031,3.396,11.865l53.333,42.667
		c4.625,3.677,11.313,2.948,15-1.667c3.666-4.604,2.938-11.313-1.667-15l-26.646-21.302C403.021,39.948,490.667,137.927,490.667,256
		c0,77.385-38.146,149.76-102.042,193.615c-4.854,3.333-6.083,9.969-2.75,14.823c2.063,3.021,5.396,4.635,8.792,4.635
		c2.083,0,4.188-0.604,6.042-1.875C470.396,419.375,512,340.417,512,256C512,114.844,397.167,0,256,0z"/>
	<path style="fill:#303C42;" d="M209.333,450.333c-4.604-3.646-11.312-2.938-15,1.667c-3.667,4.604-2.938,11.313,1.666,15
		l26.646,21.302C108.979,472.052,21.333,374.073,21.333,256c0-77.385,38.146-149.76,102.042-193.625
		c4.854-3.333,6.083-9.969,2.75-14.833c-3.313-4.854-9.938-6.073-14.833-2.75C41.604,92.625,0,171.583,0,256
		c0,141.156,114.833,256,256,256c4.521,0,8.563-2.865,10.063-7.135s0.146-9.031-3.396-11.865L209.333,450.333z"/>
	<path style="fill:#303C42;" d="M245.333,181.333h64c5.896,0,10.667-4.771,10.667-10.667S315.229,160,309.333,160h-42.667v-21.333
		c0-5.896-4.771-10.667-10.667-10.667c-5.896,0-10.667,4.771-10.667,10.667V160C215.917,160,192,183.927,192,213.333
		s23.917,53.333,53.333,53.333h21.333c17.646,0,32,14.354,32,32c0,17.646-14.354,32-32,32h-64c-5.896,0-10.667,4.771-10.667,10.667
		S196.771,352,202.667,352h42.667v21.333c0,5.896,4.771,10.667,10.667,10.667c5.896,0,10.667-4.771,10.667-10.667V352
		C296.083,352,320,328.073,320,298.667s-23.917-53.333-53.333-53.333h-21.333c-17.646,0-32-14.354-32-32
		S227.688,181.333,245.333,181.333z"/>
</g>
<linearGradient id="SVGID_1_" gradientUnits="userSpaceOnUse" x1="-45.5791" y1="639.5549" x2="-23.8271" y2="629.4139" gradientTransform="matrix(21.3333 0 0 -21.3333 996.3334 13791.667)">
	<stop  offset="0" style="stop-color:#FFFFFF;stop-opacity:0.2"/>
	<stop  offset="1" style="stop-color:#FFFFFF;stop-opacity:0"/>
</linearGradient>
<path style="fill:url(#SVGID_1_);" d="M256,0c-4.521,0-8.563,2.865-10.063,7.135s-0.146,9.031,3.396,11.865l53.333,42.667
	c4.625,3.677,11.313,2.948,15-1.667c3.666-4.604,2.938-11.313-1.667-15l-26.646-21.302C403.021,39.948,490.667,137.927,490.667,256
	c0,77.385-38.146,149.76-102.042,193.615c-4.854,3.333-6.083,9.969-2.75,14.823c2.063,3.021,5.396,4.635,8.792,4.635
	c2.083,0,4.188-0.604,6.042-1.875C470.396,419.375,512,340.417,512,256C512,114.844,397.167,0,256,0z M209.333,450.333
	c-4.604-3.646-11.312-2.938-15,1.667c-3.667,4.604-2.938,11.313,1.666,15l26.646,21.302C108.979,472.052,21.333,374.073,21.333,256
	c0-77.385,38.146-149.76,102.042-193.625c4.854-3.333,6.083-9.969,2.75-14.833c-3.313-4.854-9.938-6.073-14.833-2.75
	C41.604,92.625,0,171.583,0,256c0,141.156,114.833,256,256,256c4.521,0,8.563-2.865,10.063-7.135s0.146-9.031-3.396-11.865
	L209.333,450.333z M245.333,181.333h64c5.896,0,10.667-4.771,10.667-10.667S315.229,160,309.333,160h-42.667v-21.333
	c0-5.896-4.771-10.667-10.667-10.667c-5.896,0-10.667,4.771-10.667,10.667V160C215.917,160,192,183.927,192,213.333
	s23.917,53.333,53.333,53.333h21.333c17.646,0,32,14.354,32,32c0,17.646-14.354,32-32,32h-64c-5.896,0-10.667,4.771-10.667,10.667
	S196.771,352,202.667,352h42.667v21.333c0,5.896,4.771,10.667,10.667,10.667c5.896,0,10.667-4.771,10.667-10.667V352
	C296.083,352,320,328.073,320,298.667s-23.917-53.333-53.333-53.333h-21.333c-17.646,0-32-14.354-32-32
	S227.688,181.333,245.333,181.333z"/>
<g>
</g>
<g>
</g>
<g>
</g>
<g>
</g>
<g>
</g>
<g>
</g>
<g>
</g>
<g>
</g>
<g>
</g>
<g>
</g>
<g>
</g>
<g>
</g>
<g>
</g>
<g>
</g>
<g>
</g>
</svg>
